<svg width="142" height="122" viewBox="0 0 142 122" fill="none" xmlns="http://www.w3.org/2000/svg">
<path d="M40.0945 49.5C32.4093 47.1822 26.5599 47.0101 19.5945 51C12.9175 54.8248 8.09454 67 8.09454 67C8.09454 67 15.9302 60.1867 22.0945 59.5C27.462 58.9021 35.5945 62.5 35.5945 62.5C35.5945 62.5 25.4569 61.26 21.0945 65C17.3767 68.1874 20.2168 73.8563 16.0945 76.5C11.2829 79.5859 1.59454 74.5 1.59454 74.5C1.59454 74.5 7.58474 86.3171 14.5945 87C19.3271 87.461 21.5948 84.5367 26.0945 83C31.9379 81.0045 41.0945 78 41.0945 78C41.0945 78 36.0207 81.893 35.5945 85.5C35.261 88.3234 38.9388 89.9948 37.5945 92.5C36.0916 95.3009 29.5945 94 29.5945 94C29.5945 94 38.4303 98.8598 44.0945 97.5C51.3643 95.7548 53.9019 89.9746 56.5945 83C59.4779 75.5315 60.0467 69.7232 56.5945 62.5C53.0572 55.0985 47.9485 51.8687 40.0945 49.5Z" fill="url(#paint0_linear_46_44)" stroke="#5456AD" stroke-opacity="0.5"/>
<path d="M37.5946 51.5C32.4009 50.3469 28.0945 51 22.5945 53C17.6661 54.7921 15.5945 58.9999 15.5945 58.9999C15.5945 58.9999 24.4788 55.3973 31.0945 56.4999C37.0945 57.4999 43.0945 63.9999 43.0945 63.9999C43.0945 63.9999 30.0751 63.8306 27.5875 66.9999C25.4674 69.7009 25.0946 70.9999 23.5945 73.4999C20.4403 78.7568 12.0945 79.9999 12.0945 79.9999C12.0945 79.9999 18.9877 81.0306 23.5945 80.9999C26.7047 80.9791 28.5945 78.735 33.0946 74.5C36.0857 71.6849 47.0945 76.9999 47.0945 76.9999C47.0945 76.9999 41.5423 79.7385 41.5945 82.4999C41.6354 84.6614 46.7379 85.7078 46.0945 87.7075C45.3752 89.9432 39.0945 93.9999 39.0945 93.9999C39.0945 93.9999 45.0461 93.9706 48.5945 92.4999C53.1488 90.6124 53.3424 81.2501 54.4529 75.7648C55.6421 69.891 53.9905 67.1936 51.0946 62C48.1271 56.6781 42.9022 52.6784 37.5946 51.5Z" fill="url(#paint1_linear_46_44)" stroke="#5B3737" stroke-width="0.749383"/>
<path d="M49.7229 74.5666L45.8126 67.2449C44.737 65.2308 44.9438 62.994 46.3832 61.4004C47.5132 60.1586 49.0031 58.5468 50.7519 56.7143L30.6917 49.0048C29.0611 48.3782 27.8343 47.0405 27.492 45.4965C27.1496 43.9526 27.7487 42.4503 29.0496 41.5567L44.5846 30.8611C48.4304 28.215 53.7311 27.7287 58.5471 29.5796L74.1516 35.5766C74.8588 35.0951 75.5472 34.6629 76.2293 34.2471C99.3754 20.394 122.759 28.6275 135.718 36.131C137.785 37.3208 138.917 39.4698 138.603 41.5335C136.547 54.4714 128.082 74.1741 100.033 78.8172C99.2177 78.956 98.3458 79.0729 97.4361 79.1752L92.2463 92.6791C90.6446 96.8468 86.6157 99.7427 81.6499 100.263L61.5593 102.429C59.8788 102.612 58.1281 101.958 56.9772 100.706C55.8263 99.4536 55.4523 97.8222 56.0009 96.3947L62.7608 78.8051C59.7784 78.5817 57.194 78.3418 55.2415 78.1563C52.8909 77.9309 50.7732 76.5333 49.704 74.5593L49.7229 74.5666ZM106.517 55.5475C108.528 56.3206 110.723 56.3704 112.618 55.6862C114.513 55.002 115.954 53.6397 116.623 51.899C117.292 50.1583 117.135 48.1818 116.185 46.4044C115.236 44.6269 113.573 43.1941 111.561 42.421C109.55 41.648 107.355 41.5981 105.46 42.2823C103.564 42.9666 102.124 44.3289 101.455 46.0696C100.786 47.8102 100.943 49.7867 101.892 51.5642C102.842 53.3416 104.505 54.7745 106.517 55.5475Z" fill="#0033FF"/>
<defs>
<linearGradient id="paint0_linear_46_44" x1="1.59454" y1="72.7991" x2="58.9751" y2="72.7991" gradientUnits="userSpaceOnUse">
<stop offset="0.375" stop-color="#493DC4"/>
<stop offset="0.72" stop-color="#181769"/>
</linearGradient>
<linearGradient id="paint1_linear_46_44" x1="11.5439" y1="75.4268" x2="54.6931" y2="70.2312" gradientUnits="userSpaceOnUse">
<stop offset="0.335" stop-color="#E06A6A"/>
<stop offset="0.78" stop-color="#A7288B"/>
<stop offset="1" stop-color="#BA2E2E"/>
</linearGradient>
</defs>
</svg>
